<?xml version="1.0" encoding="utf-8"?><svg width="160" height="24" fill="none" xmlns="http://www.w3.org/2000/svg" viewBox="0 0 160 24"><path fill-rule="evenodd" clip-rule="evenodd" d="M4.81 3.056c-.714.203-1.295.427-1.733.661-.437.24-.858.523-1.253.854-.395.33-.656.554-.779.682a3.166 3.166 0 00-.261.288l1.813 1.862.518-.507c.362-.315.912-.635 1.648-.976a5.331 5.331 0 012.24-.507c1.056 0 1.882.246 2.48.731.602.485.901 1.072.901 1.765 0 .71-.299 1.312-.901 1.814-.598.496-1.424.746-2.48.746H4.8v2.662h2.203c1.301 0 2.314.298 3.05.89.736.592 1.104 1.312 1.104 2.16 0 .854-.368 1.574-1.104 2.171-.736.597-1.749.896-3.05.896a6.83 6.83 0 01-1.787-.24c-.592-.16-1.072-.341-1.44-.544a9.113 9.113 0 01-1.717-1.243 4.68 4.68 0 01-.235-.234L0 18.848l.267.325c.186.208.48.46.88.763.4.304.858.603 1.381.89.517.294 1.179.545 1.979.753.805.213 1.632.32 2.496.32 2.128 0 3.824-.544 5.098-1.638 1.27-1.088 1.904-2.405 1.904-3.946 0-.635-.122-1.227-.362-1.787-.24-.56-.507-.997-.806-1.307a5.071 5.071 0 00-1.024-.826c-.389-.235-.661-.39-.816-.454-.154-.064-.277-.112-.362-.149l.266-.128c.187-.085.406-.235.662-.448.25-.213.501-.464.752-.763.25-.293.464-.688.645-1.178.181-.496.272-1.03.272-1.6 0-1.403-.555-2.576-1.664-3.515-1.11-.939-2.635-1.408-4.565-1.408-.742 0-1.472.101-2.192.304zM23.307 5.413c-1.84 1.856-2.758 4.118-2.758 6.795 0 2.677.918 4.939 2.758 6.795 1.84 1.856 4.117 2.778 6.832 2.778 2.714 0 4.992-.922 6.832-2.778 1.84-1.856 2.762-4.118 2.762-6.795 0-2.677-.922-4.939-2.762-6.795-1.84-1.85-4.118-2.778-6.832-2.778-2.715 0-4.992.928-6.832 2.778zm2.048 11.707c-1.307-1.344-1.958-2.981-1.958-4.912 0-1.93.651-3.568 1.958-4.907 1.301-1.333 2.896-2.005 4.784-2.005s3.482.672 4.789 2.005c1.301 1.34 1.952 2.976 1.952 4.907 0 1.93-.65 3.568-1.952 4.912-1.307 1.339-2.901 2.01-4.79 2.01-1.887 0-3.482-.671-4.783-2.01zM54.565 3.008h-7.258v18.63h2.848v-6.651h4.41c1.728 0 3.179-.576 4.347-1.739 1.168-1.162 1.755-2.576 1.755-4.24 0-1.67-.587-3.083-1.755-4.25-1.168-1.163-2.619-1.75-4.347-1.75zm-4.41 2.667h4.41c.891 0 1.654.32 2.288.96.635.64.95 1.434.95 2.373 0 .939-.315 1.728-.95 2.363-.634.634-1.397.954-2.288.954h-4.41v-6.65zM81.563 5.675V3.008H69.904v18.63h2.848V5.674h8.81zM103.323 3.008H90.096v18.63h13.488v-2.662h-10.55V13.26h8.15v-2.662h-8.15V5.676h10.289V3.008zM117.829 21.6h2.544l-.005-12.464L131.056 21.6h.539V2.992h-2.544V15.58L118.549 3.013h-.72V21.6zM135.867 4.07c-.95.954-1.424 2.133-1.424 3.53 0 1.408.474 2.581 1.424 3.536.949.955 2.144 1.435 3.573 1.435 1.429 0 2.619-.48 3.563-1.435.944-.955 1.418-2.128 1.418-3.536 0-1.397-.474-2.576-1.418-3.53-.944-.955-2.134-1.43-3.563-1.43-1.429 0-2.624.475-3.573 1.43zm1.728 5.44c-.486-.48-.731-1.115-.731-1.91 0-.784.245-1.419.731-1.904.485-.485 1.098-.725 1.845-.725.741 0 1.355.24 1.835.725.485.485.725 1.12.725 1.904 0 .795-.24 1.43-.725 1.91-.48.49-1.094.73-1.835.73-.747 0-1.36-.24-1.845-.73zM150.261 21.643h2.864l5.179-8.25.341-.534c.246-.358.486-.886.726-1.6.24-.71.362-1.419.362-2.128 0-1.734-.629-3.227-1.893-4.49-1.264-1.26-2.789-1.889-4.592-1.889-1.797 0-3.328.63-4.587 1.883-1.264 1.258-1.893 2.757-1.893 4.496 0 1.722.603 3.221 1.803 4.485 1.205 1.27 2.592 1.904 4.16 1.904.608 0 1.125-.09 1.557-.272l-4.027 6.395zm.23-9.782c-.752-.757-1.126-1.664-1.126-2.725 0-1.061.374-1.968 1.126-2.725.752-.758 1.669-1.136 2.757-1.136 1.093 0 2.011.378 2.763 1.136.752.757 1.125 1.664 1.125 2.725 0 1.061-.373 1.968-1.125 2.725-.752.752-1.67 1.126-2.763 1.126-1.088 0-2.005-.374-2.757-1.126zM137.659 20.059c0 .965.778 1.75 1.744 1.75.965 0 1.744-.785 1.744-1.75 0-.966-.779-1.744-1.744-1.744a1.74 1.74 0 00-1.744 1.744z" fill="#fff"/></svg>