<svg width="160" height="24" viewBox="0 0 160 24" fill="none" xmlns="http://www.w3.org/2000/svg">
<path fill-rule="evenodd" clip-rule="evenodd" d="M4.81067 3.05608C4.096 3.25874 3.51467 3.48274 3.07733 3.71741C2.64 3.95741 2.21867 4.24008 1.824 4.57074C1.42933 4.90141 1.168 5.12541 1.04533 5.25341C0.922667 5.37608 0.837333 5.47208 0.784 5.54141L2.59733 7.40274L3.11467 6.89608C3.47733 6.58141 4.02667 6.26141 4.76267 5.92008C5.49333 5.58408 6.24533 5.41341 7.00267 5.41341C8.05867 5.41341 8.88533 5.65874 9.48267 6.14408C10.0853 6.62941 10.384 7.21608 10.384 7.90941C10.384 8.61874 10.0853 9.22141 9.48267 9.72274C8.88533 10.2187 8.05867 10.4694 7.00267 10.4694H4.8V13.1307H7.00267C8.304 13.1307 9.31733 13.4294 10.0533 14.0214C10.7893 14.6134 11.1573 15.3334 11.1573 16.1814C11.1573 17.0347 10.7893 17.7547 10.0533 18.3521C9.31733 18.9494 8.304 19.2481 7.00267 19.2481C6.40533 19.2481 5.808 19.1681 5.216 19.0081C4.624 18.8481 4.144 18.6667 3.776 18.4641C3.40267 18.2614 3.05067 18.0267 2.71467 17.7707C2.384 17.5094 2.16533 17.3281 2.05867 17.2214C1.952 17.1201 1.872 17.0401 1.824 16.9867L0 18.8481L0.266667 19.1734C0.453333 19.3814 0.746667 19.6321 1.14667 19.9361C1.54667 20.2401 2.00533 20.5387 2.528 20.8267C3.04533 21.1201 3.70667 21.3707 4.50667 21.5787C5.312 21.7921 6.13867 21.8987 7.00267 21.8987C9.13067 21.8987 10.8267 21.3547 12.1013 20.2614C13.3707 19.1734 14.0053 17.8561 14.0053 16.3147C14.0053 15.6801 13.8827 15.0881 13.6427 14.5281C13.4027 13.9681 13.136 13.5307 12.8373 13.2214C12.544 12.9121 12.2027 12.6347 11.8133 12.3947C11.424 12.1601 11.152 12.0054 10.9973 11.9414C10.8427 11.8774 10.72 11.8294 10.6347 11.7921L10.9013 11.6641C11.088 11.5787 11.3067 11.4294 11.5627 11.2161C11.8133 11.0027 12.064 10.7521 12.3147 10.4534C12.5653 10.1601 12.7787 9.76541 12.96 9.27474C13.1413 8.77874 13.232 8.24541 13.232 7.67474C13.232 6.27208 12.6773 5.09874 11.568 4.16008C10.4587 3.22141 8.93333 2.75208 7.00267 2.75208C6.26133 2.75208 5.53067 2.85341 4.81067 3.05608Z" fill="white"/>
<path fill-rule="evenodd" clip-rule="evenodd" d="M23.3066 5.41343C21.4667 7.26943 20.5493 9.53077 20.5493 12.2081C20.5493 14.8854 21.4667 17.1468 23.3066 19.0028C25.1466 20.8588 27.424 21.7814 30.1386 21.7814C32.8533 21.7814 35.1306 20.8588 36.9706 19.0028C38.8106 17.1468 39.7333 14.8854 39.7333 12.2081C39.7333 9.53077 38.8106 7.26943 36.9706 5.41343C35.1306 3.56277 32.8533 2.63477 30.1386 2.63477C27.424 2.63477 25.1466 3.56277 23.3066 5.41343ZM25.3546 17.1201C24.048 15.7761 23.3973 14.1388 23.3973 12.2081C23.3973 10.2774 24.048 8.6401 25.3546 7.30143C26.656 5.9681 28.2506 5.2961 30.1386 5.2961C32.0266 5.2961 33.6213 5.9681 34.928 7.30143C36.2293 8.6401 36.88 10.2774 36.88 12.2081C36.88 14.1388 36.2293 15.7761 34.928 17.1201C33.6213 18.4588 32.0266 19.1308 30.1386 19.1308C28.2506 19.1308 26.656 18.4588 25.3546 17.1201Z" fill="white"/>
<path fill-rule="evenodd" clip-rule="evenodd" d="M54.5653 3.00812H47.3066V21.6375H50.1546V14.9868H54.5653C56.2933 14.9868 57.744 14.4108 58.912 13.2481C60.08 12.0855 60.6666 10.6721 60.6666 9.00812C60.6666 7.33878 60.08 5.92545 58.912 4.75745C57.744 3.59478 56.2933 3.00812 54.5653 3.00812ZM50.1546 5.67478H54.5653C55.456 5.67478 56.2186 5.99478 56.8533 6.63478C57.488 7.27478 57.8026 8.06945 57.8026 9.00812C57.8026 9.94678 57.488 10.7361 56.8533 11.3708C56.2186 12.0055 55.456 12.3255 54.5653 12.3255H50.1546V5.67478Z" fill="white"/>
<path fill-rule="evenodd" clip-rule="evenodd" d="M81.5626 5.67478V3.00812H69.9041V21.6375H72.752V5.67478H81.5626Z" fill="white"/>
<path fill-rule="evenodd" clip-rule="evenodd" d="M103.323 3.00812H90.0962V21.6375H103.584V18.9761H93.0349V13.2588H101.184V10.5975H93.0349V5.67478H103.323V3.00812Z" fill="white"/>
<path fill-rule="evenodd" clip-rule="evenodd" d="M117.829 21.6001H120.373L120.368 9.13613L131.056 21.6001H131.595V2.99213H129.051V15.5788L118.549 3.01346H117.829V21.6001Z" fill="white"/>
<path fill-rule="evenodd" clip-rule="evenodd" d="M135.867 4.06941C134.917 5.02408 134.443 6.20274 134.443 7.60008C134.443 9.00808 134.917 10.1814 135.867 11.1361C136.816 12.0907 138.011 12.5707 139.44 12.5707C140.869 12.5707 142.059 12.0907 143.003 11.1361C143.947 10.1814 144.421 9.00808 144.421 7.60008C144.421 6.20274 143.947 5.02408 143.003 4.06941C142.059 3.11474 140.869 2.64008 139.44 2.64008C138.011 2.64008 136.816 3.11474 135.867 4.06941ZM137.595 9.50941C137.109 9.02941 136.864 8.39474 136.864 7.60008C136.864 6.81608 137.109 6.18141 137.595 5.69608C138.08 5.21074 138.693 4.97074 139.44 4.97074C140.181 4.97074 140.795 5.21074 141.275 5.69608C141.76 6.18141 142 6.81608 142 7.60008C142 8.39474 141.76 9.02941 141.275 9.50941C140.795 10.0001 140.181 10.2401 139.44 10.2401C138.693 10.2401 138.08 10.0001 137.595 9.50941Z" fill="white"/>
<path fill-rule="evenodd" clip-rule="evenodd" d="M150.261 21.6427H153.125L158.304 13.3921L158.645 12.8587C158.891 12.5014 159.131 11.9734 159.371 11.2587C159.611 10.5494 159.733 9.84008 159.733 9.13074C159.733 7.39741 159.104 5.90408 157.84 4.64008C156.576 3.38141 155.051 2.75208 153.248 2.75208C151.451 2.75208 149.92 3.38141 148.661 4.63474C147.397 5.89341 146.768 7.39208 146.768 9.13074C146.768 10.8534 147.371 12.3521 148.571 13.6161C149.776 14.8854 151.163 15.5201 152.731 15.5201C153.339 15.5201 153.856 15.4294 154.288 15.2481L150.261 21.6427ZM150.491 11.8614C149.739 11.1041 149.365 10.1974 149.365 9.13608C149.365 8.07474 149.739 7.16808 150.491 6.41074C151.243 5.65341 152.16 5.27474 153.248 5.27474C154.341 5.27474 155.259 5.65341 156.011 6.41074C156.763 7.16808 157.136 8.07474 157.136 9.13608C157.136 10.1974 156.763 11.1041 156.011 11.8614C155.259 12.6134 154.341 12.9867 153.248 12.9867C152.16 12.9867 151.243 12.6134 150.491 11.8614Z" fill="white"/>
<path fill-rule="evenodd" clip-rule="evenodd" d="M137.659 20.0588C137.659 21.0242 138.437 21.8082 139.403 21.8082C140.368 21.8082 141.147 21.0242 141.147 20.0588C141.147 19.0935 140.368 18.3148 139.403 18.3148C138.437 18.3148 137.659 19.0935 137.659 20.0588Z" fill="white"/>
</svg>
